<svg data-name="Capa 2" viewBox="0 0 126.4 122.1" xmlns="http://www.w3.org/2000/svg"><defs><linearGradient id="a" x1="8.1" x2="118.4" y1="1016.6" y2="1016.6" data-name="Degradado sin nombre" gradientTransform="translate(0 -956)" gradientUnits="userSpaceOnUse"><stop stop-color="#4047ff" offset="0"/><stop stop-color="#04006c" offset="1"/></linearGradient><style>.cls-1{fill:#ffc200}</style></defs><g data-name="Capa 1"><path d="M118.4 39.8c-.8 5.7-3.5 24.5-17.3 42.9-14 19-32.3 28.2-37.9 31-5.5-2.8-23.9-12-37.9-31C11.6 64.4 8.9 45.6 8.1 39.8l8.3-4.5v-6.2l8.3-4.5v-6.2c11.4-5.5 24-9 38.5-11 14.5 1.9 27.1 5.5 38.5 11v6.2l8.3 4.5v6.2l8.4 4.5Z" style="fill:url(#a)"/><path class="cls-1" d="M117.5 30.9v-6.2l-8.3-4.5v-6.5l-4.2-2C92.9 6 79.6 2.2 64.2.1l-1-.1-1 .1C46.9 2.2 33.5 6 21.5 11.8l-4.2 2v6.5L9 24.7v6.2l-9 4.8.7 5.1C3.1 58 9.4 73.6 19.4 87.1c10.1 13.7 23.7 24.9 40.5 33.3l3.3 1.7 3.3-1.7c16.8-8.4 30.4-19.6 40.5-33.3 10-13.5 16.3-29.1 18.7-46.3l.7-5.1-8.9-4.8Zm.9 8.9c-.8 5.7-3.5 24.5-17.3 42.9-14 19-32.3 28.2-37.9 31-5.5-2.8-23.9-12-37.9-31C11.6 64.4 8.9 45.6 8.1 39.8l8.3-4.5v-6.2l8.3-4.5v-6.2c11.4-5.5 24-9 38.5-11 14.5 1.9 27.1 5.5 38.5 11v6.2l8.3 4.5v6.2l8.4 4.5Z"/><path class="cls-1" d="m50.9 22.4.4 50.5-.4.2c-5.3-13.5-8.5-30.3-9.5-47.2-2.6 1.2-5.4 2.6-8.3 4.4 1.2 15.3 3.8 28.7 8.5 41.5l-2.7 1.5c-7.1-9.9-11.7-21.9-14.8-36.2-2.2 2-4.3 4.2-6.5 6.6 4.1 17.1 10.7 30.1 20.2 40.6l7.3-4.4c3.6 7.5 8.6 14.9 14.2 20.8V20.9c-2.8.3-5.6.8-8.4 1.5Zm47.2 26.1c3-3.3 3.6-5.7 3.6-8.6 0-4.1-3.4-7.8-8.4-11-3-1.9-7.6-4.2-14.3-6.1-3.8-1-7.9-1.7-12-1.8v79.9c16.8-8.6 36.7-32.3 36.8-44.4.2-3.7-1.7-6.1-5.7-8Zm-22.7-18c4.1 0 17.5 4.2 17.5 9.6 0 1.9-1.7 4.7-7 7.5l-10.5 5.6V30.5Zm10.4 44.3c-2.4 2.7-6.2 6.9-10.4 10.1V62s15.2-8.5 15.7-8.9c4.5 1.2 4.3 4.5 4.3 4.8 0 4.2-4.3 10.7-9.6 16.9Z"/></g></svg>